<?xml version="1.0" encoding="UTF-8"?>
<svg width="100" height="100" viewBox="0 0 100 100" xmlns="http://www.w3.org/2000/svg">
    <circle cx="50" cy="50" r="45" fill="#25D366"/>
    <path d="M30 50 C30 38.95 38.95 30 50 30 C61.05 30 70 38.95 70 50 C70 61.05 61.05 70 50 70 C47.5 70 45.1 69.5 42.9 68.5 L30 75 L36.5 62.1 C35.5 59.9 35 57.5 35 55 C35 52.5 35.5 50.1 36.5 47.9 Z" fill="white"/>
    <path d="M50 35 C40.05 35 32 43.05 32 53 C32 55.25 32.5 57.45 33.5 59.45 L32 65 L37.55 63.5 C39.55 64.5 41.75 65 44 65 C53.95 65 62 56.95 62 47 C62 37.05 53.95 29 44 29 Z" fill="#25D366"/>
    <path d="M44 40 C43.5 40 43 40.1 42.5 40.3 C42 40.5 41.5 40.8 41.1 41.2 C40.7 41.6 40.4 42.1 40.2 42.6 C40 43.1 39.9 43.6 39.9 44.1 C39.9 44.6 40 45.1 40.2 45.6 C40.4 46.1 40.7 46.6 41.1 47 C41.5 47.4 42 47.7 42.5 47.9 C43 48.1 43.5 48.2 44 48.2 C44.5 48.2 45 48.1 45.5 47.9 C46 47.7 46.5 47.4 46.9 47 C47.3 46.6 47.6 46.1 47.8 45.6 C48 45.1 48.1 44.6 48.1 44.1 C48.1 43.6 48 43.1 47.8 42.6 C47.6 42.1 47.3 41.6 46.9 41.2 C46.5 40.8 46 40.5 45.5 40.3 C45 40.1 44.5 40 44 40 Z" fill="white"/>
    <path d="M54 40 C53.5 40 53 40.1 52.5 40.3 C52 40.5 51.5 40.8 51.1 41.2 C50.7 41.6 50.4 42.1 50.2 42.6 C50 43.1 49.9 43.6 49.9 44.1 C49.9 44.6 50 45.1 50.2 45.6 C50.4 46.1 50.7 46.6 51.1 47 C51.5 47.4 52 47.7 52.5 47.9 C53 48.1 53.5 48.2 54 48.2 C54.5 48.2 55 48.1 55.5 47.9 C56 47.7 56.5 47.4 56.9 47 C57.3 46.6 57.6 46.1 57.8 45.6 C58 45.1 58.1 44.6 58.1 44.1 C58.1 43.6 58 43.1 57.8 42.6 C57.6 42.1 57.3 41.6 56.9 41.2 C56.5 40.8 56 40.5 55.5 40.3 C55 40.1 54.5 40 54 40 Z" fill="white"/>
</svg> 